<?xml version="1.0" standalone="no"?>
<!DOCTYPE svg PUBLIC "-//W3C//DTD SVG 20010904//EN"
 "http://www.w3.org/TR/2001/REC-SVG-20010904/DTD/svg10.dtd">
<svg version="1.0" xmlns="http://www.w3.org/2000/svg"
 width="300.000000pt" height="300.000000pt" viewBox="0 0 300.000000 300.000000"
 preserveAspectRatio="xMidYMid meet">
<metadata>
Created by potrace 1.11, written by Peter Selinger 2001-2013
</metadata>
<g transform="translate(0.000000,300.000000) scale(0.100000,-0.100000)"
fill="#000000" stroke="none">
<path d="M1370 2941 c0 -9 86 -53 277 -143 39 -18 49 -38 20 -38 -13 0 -140
-62 -159 -78 -12 -8 -168 51 -325 123 -39 19 -49 19 -34 1 7 -8 49 -29 94 -47
45 -18 87 -35 92 -39 6 -4 36 -17 68 -30 31 -12 57 -26 57 -30 0 -7 -24 -18
-85 -37 -25 -7 -51 -1 -155 39 -69 27 -134 53 -145 58 -35 16 -65 22 -65 12 0
-7 109 -53 263 -109 26 -9 47 -22 47 -28 -1 -5 -28 -22 -61 -37 l-60 -28 -87
31 c-48 17 -91 32 -97 33 -5 1 -21 8 -35 16 -14 7 -26 13 -27 12 -3 -2 -31 7
-58 18 -43 17 -54 18 -65 5 -18 -22 -3 -52 33 -65 18 -7 41 -16 52 -20 11 -4
54 -20 95 -35 74 -28 106 -45 81 -45 -7 0 -36 -12 -65 -26 l-52 -25 -203 66
c-111 37 -205 64 -208 61 -4 -3 -4 -8 -2 -10 2 -2 90 -32 196 -66 154 -50 192
-66 196 -82 5 -17 12 -20 44 -15 29 4 75 -7 189 -44 l150 -49 0 -32 c-1 -28
-7 -34 -71 -67 -109 -56 -174 -108 -239 -192 -28 -36 -72 -137 -86 -198 -13
-54 -17 -227 -6 -278 3 -15 8 -44 11 -63 3 -19 14 -69 25 -110 10 -41 21 -86
24 -100 3 -14 25 -92 50 -175 25 -82 46 -158 46 -169 0 -10 15 -33 33 -51 40
-40 124 -57 272 -56 l100 2 0 -131 0 -130 -52 -30 c-52 -30 -113 -88 -156
-150 -21 -30 -25 -31 -103 -34 -83 -4 -133 -24 -176 -73 -45 -50 -64 -162 -37
-219 l14 -29 598 -3 c328 -1 597 1 597 5 0 5 -20 38 -44 75 -25 37 -41 70 -38
72 4 2 25 -4 46 -14 42 -19 86 -79 86 -117 0 -22 3 -23 91 -23 l90 0 -5 33
c-13 74 -18 92 -27 101 -5 6 -9 17 -9 26 0 22 -85 116 -123 135 -60 31 -139
41 -208 26 -46 -10 -54 -10 -62 5 -37 65 -155 157 -245 190 -26 10 -50 20 -54
24 -4 3 -10 69 -14 145 l-5 140 106 23 c165 36 386 114 508 180 l48 26 -6 60
c-3 34 -7 88 -10 121 -4 66 -12 139 -21 200 -3 22 -7 51 -9 65 -2 14 -8 59
-15 100 -54 366 -99 555 -142 601 -37 38 -116 74 -196 89 -110 20 -367 5 -444
-25 -9 -4 -28 1 -42 10 -21 14 -25 24 -24 60 l1 44 41 -16 c22 -9 46 -20 51
-24 6 -5 30 -11 54 -15 47 -7 62 3 54 36 -5 17 -22 25 -179 81 -18 6 -23 17
-25 60 -3 31 0 53 7 56 6 2 46 -10 90 -27 195 -76 266 -101 272 -96 8 9 4 11
-98 49 -195 74 -244 94 -247 104 -4 11 85 49 106 44 7 -1 87 -34 177 -72 168
-71 184 -76 184 -59 0 6 -7 10 -15 10 -8 0 -23 4 -33 10 -9 5 -75 34 -147 64
-71 31 -131 59 -132 63 -3 9 166 93 186 93 7 0 47 -16 89 -36 42 -20 106 -50
141 -66 36 -16 82 -38 103 -49 22 -11 38 -15 38 -9 0 6 -57 38 -127 71 -219
103 -233 111 -233 125 0 9 -11 14 -31 14 -16 0 -67 17 -112 39 -45 21 -118 56
-162 76 -44 21 -83 40 -87 42 -5 2 -8 0 -8 -6z m-490 -341 c0 -5 -2 -10 -4
-10 -3 0 -8 5 -11 10 -3 6 -1 10 4 10 6 0 11 -4 11 -10z m61 -28 c-7 -2 -18 1
-23 6 -8 8 -4 9 13 5 13 -4 18 -8 10 -11z m79 -22 c8 -5 11 -10 5 -10 -5 0
-17 5 -25 10 -8 5 -10 10 -5 10 6 0 17 -5 25 -10z m80 -30 c8 -5 11 -10 5 -10
-5 0 -17 5 -25 10 -8 5 -10 10 -5 10 6 0 17 -5 25 -10z m247 -5 c7 -24 -13
-36 -43 -25 -28 11 -28 12 -9 26 21 16 46 15 52 -1z m-69 -87 l63 -23 -2 -48
c-2 -29 -7 -46 -13 -44 -6 2 -69 23 -139 47 -114 38 -126 44 -109 56 10 7 31
16 45 19 15 4 30 12 33 17 8 13 42 6 122 -24z m217 -28 c3 -6 -1 -7 -9 -4 -18
7 -21 14 -7 14 6 0 13 -4 16 -10z m60 -28 c-3 -3 -11 0 -18 7 -9 10 -8 11 6 5
10 -3 15 -9 12 -12z m-365 -2195 c0 -1 -13 -35 -28 -75 -27 -71 -28 -73 -40
-47 -27 58 -3 125 44 125 13 0 24 -1 24 -3z"/>
</g>
</svg>
